# Blender 4.3.2
# www.blender.org
mtllib Arco.mtl
g Torus_Mesh
v -12.165064 10.000000 -1.250000
v -11.250000 10.000000 -2.165063
v -8.750000 10.000000 -2.165063
v -7.834936 10.000000 -1.250000
v -7.834936 10.000000 1.250000
v -8.750000 10.000000 2.165063
v -11.250000 10.000000 2.165063
v -12.165064 10.000000 1.250000
v -12.060990 11.587859 -1.250000
v -11.153755 11.468420 -2.165063
v -8.675142 11.142104 -2.165063
v -7.767907 11.022664 -1.250000
v -7.767907 11.022664 1.250000
v -8.675142 11.142104 2.165063
v -11.153755 11.468420 2.165063
v -12.060990 11.587859 1.250000
v -11.750549 13.148549 -1.250000
v -10.866666 12.911714 -2.165064
v -8.451851 12.264667 -2.165064
v -7.567967 12.027831 -1.250000
v -7.567967 12.027831 1.250000
v -8.451851 12.264667 2.165063
v -10.866666 12.911714 2.165063
v -11.750549 13.148549 1.250000
v -11.239055 14.655368 -1.250000
v -10.393645 14.305188 -2.165064
v -8.083945 13.348480 -2.165064
v -7.238538 12.998301 -1.250000
v -7.238538 12.998301 1.250000
v -8.083945 13.348480 2.165063
v -10.393645 14.305188 2.165063
v -11.239055 14.655368 1.250000
v -10.535254 16.082535 -1.250000
v -9.742785 15.625001 -2.165064
v -7.577722 14.375001 -2.165064
v -6.785254 13.917470 -1.250000
v -6.785254 13.917470 1.250000
v -7.577722 14.375001 2.165063
v -9.742785 15.625001 2.165063
v -10.535254 16.082535 1.250000
v -9.651195 17.405621 -1.250000
v -8.925226 16.848564 -2.165064
v -6.941842 15.326662 -2.165064
v -6.215874 14.769607 -1.250000
v -6.215874 14.769607 1.250000
v -6.941842 15.326662 2.165063
v -8.925226 16.848564 2.165063
v -9.651195 17.405621 1.250000
v -8.601997 18.602001 -1.250000
v -7.954950 17.954952 -2.165064
v -6.187183 16.187183 -2.165064
v -5.540136 15.540138 -1.250000
v -5.540136 15.540138 1.250000
v -6.187183 16.187183 2.165063
v -7.954950 17.954952 2.165063
v -8.601997 18.602001 1.250000
v -7.405623 19.651192 -1.250000
v -6.848568 18.925224 -2.165064
v -5.326663 16.941841 -2.165064
v -4.769608 16.215870 -1.250000
v -4.769608 16.215870 1.250000
v -5.326663 16.941841 2.165063
v -6.848568 18.925224 2.165063
v -7.405623 19.651192 1.250000
v -6.082531 20.535255 -1.250000
v -5.624999 19.742786 -2.165064
v -4.375000 17.577724 -2.165064
v -3.917468 16.785255 -1.250000
v -3.917468 16.785255 1.250000
v -4.375000 17.577724 2.165063
v -5.624999 19.742786 2.165063
v -6.082531 20.535255 1.250000
v 12.165063 0.000002 1.250000
v -4.655371 21.239052 -1.250000
v -4.305191 20.393642 -2.165064
v -3.348482 18.083946 -2.165064
v -2.998302 17.238537 -1.250000
v -2.998302 17.238537 1.250000
v -3.348482 18.083946 2.165063
v -4.305191 20.393642 2.165063
v -4.655371 21.239052 1.250000
v 11.250000 0.000002 2.165064
v -3.148550 21.750549 -1.250000
v -2.911715 20.866665 -2.165064
v -2.264667 18.451851 -2.165064
v -2.027831 17.567966 -1.250000
v -2.027831 17.567966 1.250000
v -2.264667 18.451851 2.165063
v -2.911715 20.866665 2.165063
v -3.148550 21.750549 1.249999
v 8.750001 0.000001 2.165064
v -1.587857 22.060989 -1.250000
v -1.468418 21.153755 -2.165064
v -1.142103 18.675140 -2.165064
v -1.022663 17.767906 -1.250000
v -1.022663 17.767906 1.250000
v -1.142103 18.675140 2.165063
v -1.468418 21.153755 2.165063
v -1.587857 22.060989 1.249999
v 7.834937 0.000001 1.250000
v -0.000001 22.165062 -1.250001
v -0.000001 21.250000 -2.165064
v -0.000001 18.750000 -2.165064
v -0.000001 17.834934 -1.250000
v -0.000001 17.834934 1.250000
v -0.000001 18.750000 2.165063
v -0.000001 21.250000 2.165063
v -0.000001 22.165062 1.249999
v 7.834937 0.000001 -1.250000
v 1.587861 22.060989 -1.250000
v 1.468421 21.153755 -2.165064
v 1.142105 18.675140 -2.165064
v 1.022666 17.767906 -1.250000
v 1.022666 17.767906 1.250000
v 1.142105 18.675140 2.165063
v 1.468421 21.153755 2.165063
v 1.587861 22.060989 1.249999
v 8.750001 0.000001 -2.165063
v 3.148549 21.750549 -1.250000
v 2.911713 20.866665 -2.165064
v 2.264666 18.451851 -2.165064
v 2.027830 17.567966 -1.250000
v 2.027830 17.567966 1.250000
v 2.264666 18.451851 2.165063
v 2.911713 20.866665 2.165063
v 3.148549 21.750549 1.249999
v 11.250000 0.000001 -2.165063
v 4.655370 21.239052 -1.250000
v 4.305190 20.393642 -2.165064
v 3.348481 18.083946 -2.165064
v 2.998301 17.238537 -1.250000
v 2.998301 17.238537 1.250000
v 3.348481 18.083946 2.165063
v 4.305190 20.393642 2.165063
v 4.655370 21.239052 1.250000
v 12.165063 0.000001 -1.250000
v 6.082530 20.535255 -1.250000
v 5.624998 19.742786 -2.165064
v 4.374999 17.577724 -2.165064
v 3.917467 16.785255 -1.250000
v 3.917467 16.785255 1.250000
v 4.374999 17.577724 2.165063
v 5.624998 19.742786 2.165063
v 6.082530 20.535255 1.250000
v -12.165064 0.000000 1.250000
v 7.405622 19.651196 -1.250000
v 6.848566 18.925224 -2.165064
v 5.326663 16.941841 -2.165064
v 4.769608 16.215874 -1.250000
v 4.769608 16.215874 1.250000
v 5.326663 16.941841 2.165063
v 6.848566 18.925224 2.165063
v 7.405622 19.651196 1.250000
v -11.250000 0.000000 2.165064
v 8.602001 18.601997 -1.250000
v 7.954953 17.954948 -2.165064
v 6.187186 16.187183 -2.165064
v 5.540138 15.540135 -1.250000
v 5.540138 15.540135 1.250000
v 6.187186 16.187183 2.165063
v 7.954953 17.954948 2.165063
v 8.602001 18.601997 1.250000
v -8.749999 0.000000 2.165064
v 9.651194 17.405621 -1.250000
v 8.925225 16.848568 -2.165064
v 6.941842 15.326663 -2.165064
v 6.215873 14.769608 -1.250000
v 6.215873 14.769608 1.250000
v 6.941842 15.326663 2.165063
v 8.925225 16.848568 2.165063
v 9.651194 17.405621 1.250000
v -7.834935 0.000000 1.250000
v 10.535252 16.082535 -1.250000
v 9.742785 15.625003 -2.165064
v 7.577721 14.375002 -2.165064
v 6.785253 13.917471 -1.250000
v 6.785253 13.917471 1.250000
v 7.577721 14.375002 2.165063
v 9.742785 15.625003 2.165063
v 10.535252 16.082535 1.250000
v -7.834935 0.000000 -1.250000
v 11.239053 14.655370 -1.250000
v 10.393644 14.305190 -2.165064
v 8.083946 13.348480 -2.165064
v 7.238537 12.998301 -1.250000
v 7.238537 12.998301 1.250000
v 8.083946 13.348480 2.165063
v 10.393644 14.305190 2.165063
v 11.239053 14.655370 1.250000
v -8.749999 0.000000 -2.165063
v 11.750550 13.148549 -1.250000
v 10.866666 12.911713 -2.165064
v 8.451852 12.264667 -2.165064
v 7.567968 12.027829 -1.250000
v 7.567968 12.027829 1.250000
v 8.451852 12.264667 2.165063
v 10.866666 12.911713 2.165063
v 11.750550 13.148549 1.250000
v -11.250000 0.000000 -2.165063
v 12.060988 11.587861 -1.250000
v 11.153754 11.468421 -2.165063
v 8.675143 11.142106 -2.165063
v 7.767907 11.022665 -1.250000
v 7.767907 11.022665 1.250000
v 8.675143 11.142106 2.165063
v 11.153754 11.468421 2.165063
v 12.060988 11.587861 1.250000
v -12.165064 0.000000 -1.250000
v 12.165063 10.000001 -1.250000
v 11.250000 10.000001 -2.165063
v 8.750000 10.000001 -2.165063
v 7.834936 10.000001 -1.250000
v 7.834936 10.000001 1.250000
v 8.750000 10.000001 2.165063
v 11.250000 10.000001 2.165063
v 12.165063 10.000001 1.250000
vn -0.9808 0.1951 -0.0000
vn -0.7063 0.0463 -0.7063
vn -0.0000 -0.0000 1.0000
vn 0.7063 -0.0463 -0.7063
vn 0.9808 -0.1951 -0.0000
vn 0.7063 -0.0463 0.7063
vn -0.0000 -0.0000 -1.0000
vn -0.7063 0.0463 0.7063
vn -0.9469 0.3214 -0.0000
vn -0.6943 0.1381 -0.7063
vn 0.6943 -0.1381 -0.7063
vn 0.9469 -0.3214 -0.0000
vn 0.6943 -0.1381 0.7063
vn -0.6943 0.1381 0.7063
vn -0.8969 0.4423 -0.0000
vn -0.6703 0.2275 -0.7063
vn 0.6703 -0.2275 -0.7063
vn 0.8969 -0.4423 -0.0000
vn 0.6703 -0.2275 0.7063
vn -0.6703 0.2275 0.7063
vn -0.8315 0.5556 -0.0000
vn -0.6349 0.3131 -0.7063
vn 0.6349 -0.3131 -0.7063
vn 0.8315 -0.5556 -0.0000
vn 0.6349 -0.3131 0.7063
vn -0.6349 0.3131 0.7063
vn -0.7518 0.6593 -0.0000
vn -0.5886 0.3933 -0.7063
vn 0.5886 -0.3933 -0.7063
vn 0.7518 -0.6593 -0.0000
vn 0.5886 -0.3933 0.7063
vn -0.5886 0.3933 0.7063
vn -0.6593 0.7518 -0.0000
vn -0.5322 0.4667 -0.7063
vn 0.5322 -0.4667 -0.7063
vn 0.6593 -0.7518 -0.0000
vn 0.5322 -0.4667 0.7063
vn -0.5322 0.4667 0.7063
vn -0.5556 0.8315 -0.0000
vn -0.4667 0.5322 -0.7063
vn 0.4667 -0.5322 -0.7063
vn 0.5556 -0.8315 -0.0000
vn 0.4667 -0.5322 0.7063
vn -0.4667 0.5322 0.7063
vn -0.4423 0.8969 -0.0000
vn -0.3933 0.5886 -0.7063
vn 0.3933 -0.5886 -0.7063
vn 0.4423 -0.8969 -0.0000
vn 0.3933 -0.5886 0.7063
vn -0.3933 0.5886 0.7063
vn -0.3214 0.9469 -0.0000
vn -0.3131 0.6349 -0.7063
vn 0.3131 -0.6349 -0.7063
vn 0.3214 -0.9469 -0.0000
vn 0.3131 -0.6349 0.7063
vn -0.3131 0.6349 0.7063
vn -0.1951 0.9808 -0.0000
vn -0.2275 0.6703 -0.7063
vn 0.2275 -0.6703 -0.7063
vn 0.1951 -0.9808 -0.0000
vn 0.2275 -0.6703 0.7063
vn -0.2275 0.6703 0.7063
vn -1.0000 -0.0000 -0.0000
vn -0.0654 0.9979 -0.0000
vn -0.1381 0.6943 -0.7063
vn 0.1381 -0.6943 -0.7063
vn 0.0654 -0.9979 -0.0000
vn 0.1381 -0.6943 0.7063
vn -0.1381 0.6943 0.7063
vn 0.0654 0.9979 -0.0000
vn -0.0463 0.7063 -0.7063
vn 0.0463 -0.7063 -0.7063
vn -0.0654 -0.9979 -0.0000
vn 0.0463 -0.7063 0.7063
vn -0.0463 0.7063 0.7063
vn 0.1951 0.9808 -0.0000
vn 0.0463 0.7063 -0.7063
vn -0.0463 -0.7063 -0.7063
vn -0.1951 -0.9808 -0.0000
vn -0.0463 -0.7063 0.7063
vn 0.0463 0.7063 0.7063
vn 0.7071 -0.0000 -0.7071
vn 0.3214 0.9469 -0.0000
vn 0.1381 0.6943 -0.7063
vn -0.1381 -0.6943 -0.7063
vn -0.3214 -0.9469 -0.0000
vn -0.1381 -0.6943 0.7063
vn 0.1381 0.6943 0.7063
vn 0.7071 -0.0000 0.7071
vn 0.4423 0.8969 -0.0000
vn 0.2275 0.6703 -0.7063
vn -0.2275 -0.6703 -0.7063
vn -0.4423 -0.8969 -0.0000
vn -0.2275 -0.6703 0.7063
vn 0.2275 0.6703 0.7063
vn 0.5556 0.8315 -0.0000
vn 0.3131 0.6349 -0.7063
vn -0.3131 -0.6349 -0.7063
vn -0.5556 -0.8315 -0.0000
vn -0.3131 -0.6349 0.7063
vn 0.3131 0.6349 0.7063
vn 0.6593 0.7518 -0.0000
vn 0.3933 0.5886 -0.7063
vn -0.3933 -0.5886 -0.7063
vn -0.6593 -0.7518 -0.0000
vn -0.3933 -0.5886 0.7063
vn 0.3933 0.5886 0.7063
vn -0.7071 -0.0000 -0.7071
vn 0.7518 0.6593 -0.0000
vn 0.4667 0.5322 -0.7063
vn -0.4667 -0.5322 -0.7063
vn -0.7518 -0.6593 -0.0000
vn -0.4667 -0.5322 0.7063
vn 0.4667 0.5322 0.7063
vn 0.8315 0.5556 -0.0000
vn 0.5322 0.4667 -0.7063
vn -0.5322 -0.4667 -0.7063
vn -0.8315 -0.5556 -0.0000
vn -0.5322 -0.4667 0.7063
vn 0.5322 0.4667 0.7063
vn 0.8969 0.4423 -0.0000
vn 0.5886 0.3933 -0.7063
vn -0.5886 -0.3933 -0.7063
vn -0.8969 -0.4423 -0.0000
vn -0.5886 -0.3933 0.7063
vn 0.5886 0.3933 0.7063
vn -0.7071 -0.0000 0.7071
vn 0.9469 0.3214 -0.0000
vn 0.6349 0.3131 -0.7063
vn -0.6349 -0.3131 -0.7063
vn -0.9469 -0.3214 -0.0000
vn -0.6349 -0.3131 0.7063
vn 0.6349 0.3131 0.7063
vn 0.9808 0.1951 -0.0000
vn 0.6703 0.2275 -0.7063
vn -0.6703 -0.2275 -0.7063
vn -0.9808 -0.1951 -0.0000
vn -0.6703 -0.2275 0.7063
vn 0.6703 0.2275 0.7063
vn 0.9979 0.0654 -0.0000
vn 0.6943 0.1381 -0.7063
vn -0.6943 -0.1381 -0.7063
vn -0.9979 -0.0654 -0.0000
vn -0.6943 -0.1381 0.7063
vn 0.6943 0.1381 0.7063
vn -0.0000 -1.0000 -0.0000
vn 0.7063 0.0463 -0.7063
vn -0.7063 -0.0463 -0.7063
vn -0.9979 0.0654 -0.0000
vn -0.7063 -0.0463 0.7063
vn 0.7063 0.0463 0.7063
vn 1.0000 -0.0000 -0.0000
vn 0.9979 -0.0654 -0.0000
vt 0.541667 0.416667
vt 0.520833 0.583333
vt 0.520833 0.416667
vt 0.500000 0.666667
vt 0.500000 0.583333
vt 0.520833 0.333333
vt 0.500000 0.166667
vt 0.520833 0.166667
vt 0.520833 0.833333
vt 0.500000 0.916667
vt 0.500000 0.833333
vt 0.541667 0.083333
vt 0.520833 0.916667
vt 0.541667 0.916667
vt 0.500000 0.083333
vt 0.541667 0.833333
vt 0.520833 0.666667
vt 0.541667 0.666667
vt 0.500000 0.416667
vt 0.500000 0.333333
vt 0.562500 0.416667
vt 0.541667 0.583333
vt 0.541667 0.166667
vt 0.562500 0.083333
vt 0.562500 0.916667
vt 0.520833 0.083333
vt 0.562500 0.666667
vt 0.541667 0.333333
vt 0.583333 0.416667
vt 0.562500 0.583333
vt 0.562500 0.333333
vt 0.562500 0.166667
vt 0.562500 0.833333
vt 0.583333 0.083333
vt 0.583333 0.916667
vt 0.583333 0.833333
vt 0.583333 0.666667
vt 0.604167 0.416667
vt 0.583333 0.583333
vt 0.583333 0.166667
vt 0.604167 0.083333
vt 0.604167 0.916667
vt 0.604167 0.666667
vt 0.583333 0.333333
vt 0.625000 0.416667
vt 0.604167 0.583333
vt 0.604167 0.166667
vt 0.625000 0.083333
vt 0.625000 0.916667
vt 0.625000 0.666667
vt 0.604167 0.833333
vt 0.604167 0.333333
vt 0.645833 0.416667
vt 0.625000 0.583333
vt 0.625000 0.333333
vt 0.625000 0.166667
vt 0.625000 0.833333
vt 0.645833 0.083333
vt 0.645833 0.916667
vt 0.645833 0.833333
vt 0.645833 0.666667
vt 0.666667 0.416667
vt 0.645833 0.583333
vt 0.645833 0.166667
vt 0.666667 0.083333
vt 0.666667 0.916667
vt 0.666667 0.833333
vt 0.666667 0.666667
vt 0.645833 0.333333
vt 0.687500 0.416667
vt 0.666667 0.583333
vt 0.666667 0.166667
vt 0.687500 0.083333
vt 0.687500 0.916667
vt 0.687500 0.666667
vt 0.666667 0.333333
vt 0.708333 0.416667
vt 0.687500 0.583333
vt 0.687500 0.333333
vt 0.687500 0.166667
vt 0.687500 0.833333
vt 0.708333 0.083333
vt 0.708333 0.916667
vt 0.708333 0.666667
vt 0.729167 0.416667
vt 0.708333 0.583333
vt 0.708333 0.333333
vt 0.708333 0.166667
vt 0.729167 0.083333
vt 0.729167 0.916667
vt 0.729167 0.666667
vt 0.708333 0.833333
vt 1.000000 0.916667
vt 1.000000 0.083333
vt 0.750000 0.416667
vt 0.729167 0.583333
vt 0.729167 0.333333
vt 0.729167 0.166667
vt 0.729167 0.833333
vt 0.750000 0.083333
vt 0.750000 0.916667
vt 0.750000 0.833333
vt 0.750000 0.666667
vt 0.770833 0.416667
vt 0.750000 0.583333
vt 0.750000 0.166667
vt 0.770833 0.083333
vt 0.770833 0.916667
vt 0.770833 0.666667
vt 0.750000 0.333333
vt 0.791667 0.416667
vt 0.770833 0.583333
vt 0.770833 0.333333
vt 0.770833 0.166667
vt 0.791667 0.083333
vt 0.791667 0.916667
vt 0.791667 0.833333
vt 0.791667 0.666667
vt 1.000000 0.583333
vt 1.000000 0.666667
vt 0.812500 0.416667
vt 0.791667 0.583333
vt 0.791667 0.333333
vt 0.791667 0.166667
vt 0.770833 0.833333
vt 0.812500 0.083333
vt 0.812500 0.916667
vt 0.812500 0.833333
vt 0.812500 0.666667
vt 1.000000 0.333333
vt 1.000000 0.416667
vt 0.833333 0.416667
vt 0.812500 0.583333
vt 0.812500 0.166667
vt 0.833333 0.083333
vt 0.833333 0.916667
vt 0.833333 0.833333
vt 0.833333 0.666667
vt 0.812500 0.333333
vt 0.854167 0.416667
vt 0.833333 0.583333
vt 0.833333 0.166667
vt 0.854167 0.083333
vt 0.854167 0.916667
vt 0.854167 0.666667
vt 0.833333 0.333333
vt 0.875000 0.416667
vt 0.854167 0.583333
vt 0.854167 0.333333
vt 0.854167 0.166667
vt 0.854167 0.833333
vt 0.875000 0.083333
vt 0.875000 0.916667
vt 0.875000 0.833333
vt 0.875000 0.666667
vt 0.895833 0.416667
vt 0.875000 0.583333
vt 0.875000 0.166667
vt 0.895833 0.916667
vt 0.895833 0.833333
vt 0.895833 0.666667
vt 0.875000 0.333333
vt 1.000000 0.166667
vt 0.916667 0.416667
vt 0.895833 0.583333
vt 0.895833 0.166667
vt 0.916667 0.083333
vt 0.916667 0.916667
vt 0.895833 0.083333
vt 0.916667 0.666667
vt 0.895833 0.333333
vt 1.000000 0.833333
vt 0.937500 0.416667
vt 0.916667 0.583333
vt 0.916667 0.333333
vt 0.916667 0.166667
vt 0.937500 0.083333
vt 0.937500 0.916667
vt 0.937500 0.833333
vt 0.937500 0.666667
vt 0.958333 0.416667
vt 0.937500 0.583333
vt 0.937500 0.166667
vt 0.916667 0.833333
vt 0.958333 0.083333
vt 0.958333 0.916667
vt 0.958333 0.833333
vt 0.958333 0.666667
vt 0.979167 0.416667
vt 0.958333 0.583333
vt 0.958333 0.166667
vt 0.937500 0.333333
vt 0.979167 0.916667
vt 0.979167 0.833333
vt 0.979167 0.666667
vt 0.958333 0.333333
vt 0.979167 0.583333
vt 0.979167 0.166667
vt 0.979167 0.083333
vt 0.979167 0.333333
s 0
g off
f 24/1/1 9/2/1 16/3/1
f 9/2/2 2/4/2 1/5/2
f 15/6/3 6/7/3 14/8/3
f 11/9/4 4/10/4 3/11/4
f 21/12/5 12/13/5 20/14/5
f 5/15/6 14/8/6 6/7/6
f 19/16/7 10/17/7 18/18/7
f 15/6/8 8/19/8 7/20/8
f 32/21/9 17/22/9 24/1/9
f 17/22/10 10/17/10 9/2/10
f 22/23/3 15/6/3 14/8/3
f 11/9/11 20/14/11 12/13/11
f 29/24/12 20/14/12 28/25/12
f 21/12/13 14/8/13 13/26/13
f 26/27/7 19/16/7 18/18/7
f 23/28/14 16/3/14 15/6/14
f 40/29/15 25/30/15 32/21/15
f 25/30/16 18/18/16 17/22/16
f 31/31/3 22/23/3 30/32/3
f 27/33/17 20/14/17 19/16/17
f 37/34/18 28/25/18 36/35/18
f 21/12/19 30/32/19 22/23/19
f 35/36/7 26/27/7 34/37/7
f 31/31/20 24/1/20 23/28/20
f 48/38/21 33/39/21 40/29/21
f 25/30/22 34/37/22 26/27/22
f 38/40/3 31/31/3 30/32/3
f 35/36/23 28/25/23 27/33/23
f 45/41/24 36/35/24 44/42/24
f 29/24/25 38/40/25 30/32/25
f 42/43/7 35/36/7 34/37/7
f 39/44/26 32/21/26 31/31/26
f 56/45/27 41/46/27 48/38/27
f 33/39/28 42/43/28 34/37/28
f 46/47/3 39/44/3 38/40/3
f 35/36/29 44/42/29 36/35/29
f 53/48/30 44/42/30 52/49/30
f 37/34/31 46/47/31 38/40/31
f 50/50/7 43/51/7 42/43/7
f 47/52/32 40/29/32 39/44/32
f 64/53/33 49/54/33 56/45/33
f 41/46/34 50/50/34 42/43/34
f 55/55/3 46/47/3 54/56/3
f 51/57/35 44/42/35 43/51/35
f 61/58/36 52/49/36 60/59/36
f 45/41/37 54/56/37 46/47/37
f 59/60/7 50/50/7 58/61/7
f 55/55/38 48/38/38 47/52/38
f 72/62/39 57/63/39 64/53/39
f 57/63/40 50/50/40 49/54/40
f 62/64/3 55/55/3 54/56/3
f 59/60/41 52/49/41 51/57/41
f 69/65/42 60/59/42 68/66/42
f 53/48/43 62/64/43 54/56/43
f 67/67/7 58/61/7 66/68/7
f 63/69/44 56/45/44 55/55/44
f 81/70/45 65/71/45 72/62/45
f 57/63/46 66/68/46 58/61/46
f 70/72/3 63/69/3 62/64/3
f 59/60/47 68/66/47 60/59/47
f 78/73/48 68/66/48 77/74/48
f 69/65/49 62/64/49 61/58/49
f 75/75/7 67/67/7 66/68/7
f 71/76/50 64/53/50 63/69/50
f 90/77/51 74/78/51 81/70/51
f 74/78/52 66/68/52 65/71/52
f 80/79/3 70/72/3 79/80/3
f 76/81/53 68/66/53 67/67/53
f 87/82/54 77/74/54 86/83/54
f 69/65/55 79/80/55 70/72/55
f 84/84/7 76/81/7 75/75/7
f 80/79/56 72/62/56 71/76/56
f 99/85/57 83/86/57 90/77/57
f 74/78/58 84/84/58 75/75/58
f 89/87/3 79/80/3 88/88/3
f 76/81/59 86/83/59 77/74/59
f 96/89/60 86/83/60 95/90/60
f 87/82/61 79/80/61 78/73/61
f 93/91/7 85/92/7 84/84/7
f 89/87/62 81/70/62 80/79/62
f 212/93/63 100/94/63 213/94/63
f 108/95/64 92/96/64 99/85/64
f 83/86/65 93/91/65 84/84/65
f 98/97/3 88/88/3 97/98/3
f 94/99/66 86/83/66 85/92/66
f 105/100/67 95/90/67 104/101/67
f 87/82/68 97/98/68 88/88/68
f 103/102/7 93/91/7 102/103/7
f 98/97/69 90/77/69 89/87/69
f 7/20/3 163/7/3 6/7/3
f 117/104/70 101/105/70 108/95/70
f 101/105/71 93/91/71 92/96/71
f 106/106/3 98/97/3 97/98/3
f 103/102/72 95/90/72 94/99/72
f 114/107/73 104/101/73 113/108/73
f 105/100/74 97/98/74 96/89/74
f 111/109/7 103/102/7 102/103/7
f 107/110/75 99/85/75 98/97/75
f 3/11/7 199/4/7 2/4/7
f 126/111/76 110/112/76 117/104/76
f 101/105/77 111/109/77 102/103/77
f 116/113/3 106/106/3 115/114/3
f 103/102/78 113/108/78 104/101/78
f 123/115/79 113/108/79 122/116/79
f 114/107/80 106/106/80 105/100/80
f 121/117/7 111/109/7 120/118/7
f 116/113/81 108/95/81 107/110/81
f 209/119/82 127/120/82 210/120/82
f 135/121/83 119/122/83 126/111/83
f 119/122/84 111/109/84 110/112/84
f 125/123/3 115/114/3 124/124/3
f 112/125/85 122/116/85 113/108/85
f 132/126/86 122/116/86 131/127/86
f 123/115/87 115/114/87 114/107/87
f 130/128/7 120/118/7 129/129/7
f 125/123/88 117/104/88 116/113/88
f 215/130/89 73/131/89 216/131/89
f 144/132/90 128/133/90 135/121/90
f 119/122/91 129/129/91 120/118/91
f 133/134/3 125/123/3 124/124/3
f 130/128/92 122/116/92 121/117/92
f 141/135/93 131/127/93 140/136/93
f 123/115/94 133/134/94 124/124/94
f 139/137/7 129/129/7 138/138/7
f 134/139/95 126/111/95 125/123/95
f 1/5/63 145/19/63 8/19/63
f 153/140/96 137/141/96 144/132/96
f 128/133/97 138/138/97 129/129/97
f 142/142/3 134/139/3 133/134/3
f 130/128/98 140/136/98 131/127/98
f 150/143/99 140/136/99 149/144/99
f 141/135/100 133/134/100 132/126/100
f 147/145/7 139/137/7 138/138/7
f 143/146/101 135/121/101 134/139/101
f 6/7/89 172/15/89 5/15/89
f 162/147/102 146/148/102 153/140/102
f 137/141/103 147/145/103 138/138/103
f 152/149/3 142/142/3 151/150/3
f 148/151/104 140/136/104 139/137/104
f 159/152/105 149/144/105 158/153/105
f 141/135/106 151/150/106 142/142/106
f 157/154/7 147/145/7 156/155/7
f 143/146/107 153/140/107 144/132/107
f 2/4/108 208/5/108 1/5/108
f 171/156/109 155/157/109 162/147/109
f 155/157/110 147/145/110 146/148/110
f 160/158/3 152/149/3 151/150/3
f 157/154/111 149/144/111 148/151/111
f 167/159/112 159/152/112 158/153/112
f 150/143/113 160/158/113 151/150/113
f 166/160/7 156/155/7 165/161/7
f 161/162/114 153/140/114 152/149/114
f 214/163/3 82/130/3 215/130/3
f 180/164/115 164/165/115 171/156/115
f 155/157/116 165/161/116 156/155/116
f 169/166/3 161/162/3 160/158/3
f 166/160/117 158/153/117 157/154/117
f 177/167/118 167/159/118 176/168/118
f 168/169/119 160/158/119 159/152/119
f 174/170/7 166/160/7 165/161/7
f 170/171/120 162/147/120 161/162/120
f 211/172/108 109/93/108 212/93/108
f 189/173/121 173/174/121 180/164/121
f 164/165/122 174/170/122 165/161/122
f 179/175/3 169/166/3 178/176/3
f 166/160/123 176/168/123 167/159/123
f 186/177/124 176/168/124 185/178/124
f 177/167/125 169/166/125 168/169/125
f 184/179/7 174/170/7 183/180/7
f 179/175/126 171/156/126 170/171/126
f 8/19/127 154/20/127 7/20/127
f 198/181/128 182/182/128 189/173/128
f 173/174/129 183/180/129 174/170/129
f 187/183/3 179/175/3 178/176/3
f 175/184/130 185/178/130 176/168/130
f 195/185/131 185/178/131 194/186/131
f 186/177/132 178/176/132 177/167/132
f 193/187/7 183/180/7 192/188/7
f 179/175/133 189/173/133 180/164/133
f 4/10/82 190/11/82 3/11/82
f 207/189/134 191/190/134 198/181/134
f 191/190/135 183/180/135 182/182/135
f 196/191/3 188/192/3 187/183/3
f 193/187/136 185/178/136 184/179/136
f 203/193/137 195/185/137 194/186/137
f 186/177/138 196/191/138 187/183/138
f 202/194/7 192/188/7 201/195/7
f 197/196/139 189/173/139 188/192/139
f 213/94/127 91/163/127 214/163/127
f 216/131/140 200/197/140 207/189/140
f 200/197/141 192/188/141 191/190/141
f 205/198/3 197/196/3 196/191/3
f 202/194/142 194/186/142 193/187/142
f 213/94/143 203/193/143 212/93/143
f 195/185/144 205/198/144 196/191/144
f 210/120/7 202/194/7 201/195/7
f 197/196/145 207/189/145 198/181/145
f 210/120/7 118/172/7 211/172/7
f 181/10/146 163/7/146 145/19/146
f 200/197/147 210/120/147 201/195/147
f 215/130/3 205/198/3 214/163/3
f 211/172/148 203/193/148 202/194/148
f 16/3/149 1/5/149 8/19/149
f 204/199/150 214/163/150 205/198/150
f 215/130/151 207/189/151 206/200/151
f 91/163/146 109/93/146 127/120/146
f 11/9/7 2/4/7 10/17/7
f 5/15/152 181/10/152 4/10/152
f 216/131/152 136/119/152 209/119/152
f 13/26/153 4/10/153 12/13/153
f 24/1/1 17/22/1 9/2/1
f 9/2/2 10/17/2 2/4/2
f 15/6/3 7/20/3 6/7/3
f 11/9/4 12/13/4 4/10/4
f 21/12/5 13/26/5 12/13/5
f 5/15/6 13/26/6 14/8/6
f 19/16/7 11/9/7 10/17/7
f 15/6/8 16/3/8 8/19/8
f 32/21/9 25/30/9 17/22/9
f 17/22/10 18/18/10 10/17/10
f 22/23/3 23/28/3 15/6/3
f 11/9/11 19/16/11 20/14/11
f 29/24/12 21/12/12 20/14/12
f 21/12/13 22/23/13 14/8/13
f 26/27/7 27/33/7 19/16/7
f 23/28/14 24/1/14 16/3/14
f 40/29/15 33/39/15 25/30/15
f 25/30/16 26/27/16 18/18/16
f 31/31/3 23/28/3 22/23/3
f 27/33/17 28/25/17 20/14/17
f 37/34/18 29/24/18 28/25/18
f 21/12/19 29/24/19 30/32/19
f 35/36/7 27/33/7 26/27/7
f 31/31/20 32/21/20 24/1/20
f 48/38/21 41/46/21 33/39/21
f 25/30/22 33/39/22 34/37/22
f 38/40/3 39/44/3 31/31/3
f 35/36/23 36/35/23 28/25/23
f 45/41/24 37/34/24 36/35/24
f 29/24/25 37/34/25 38/40/25
f 42/43/7 43/51/7 35/36/7
f 39/44/26 40/29/26 32/21/26
f 56/45/27 49/54/27 41/46/27
f 33/39/28 41/46/28 42/43/28
f 46/47/3 47/52/3 39/44/3
f 35/36/29 43/51/29 44/42/29
f 53/48/30 45/41/30 44/42/30
f 37/34/31 45/41/31 46/47/31
f 50/50/7 51/57/7 43/51/7
f 47/52/32 48/38/32 40/29/32
f 64/53/33 57/63/33 49/54/33
f 41/46/34 49/54/34 50/50/34
f 55/55/3 47/52/3 46/47/3
f 51/57/35 52/49/35 44/42/35
f 61/58/36 53/48/36 52/49/36
f 45/41/37 53/48/37 54/56/37
f 59/60/7 51/57/7 50/50/7
f 55/55/38 56/45/38 48/38/38
f 72/62/39 65/71/39 57/63/39
f 57/63/40 58/61/40 50/50/40
f 62/64/3 63/69/3 55/55/3
f 59/60/41 60/59/41 52/49/41
f 69/65/42 61/58/42 60/59/42
f 53/48/43 61/58/43 62/64/43
f 67/67/7 59/60/7 58/61/7
f 63/69/44 64/53/44 56/45/44
f 81/70/45 74/78/45 65/71/45
f 57/63/46 65/71/46 66/68/46
f 70/72/3 71/76/3 63/69/3
f 59/60/47 67/67/47 68/66/47
f 78/73/48 69/65/48 68/66/48
f 69/65/49 70/72/49 62/64/49
f 75/75/7 76/81/7 67/67/7
f 71/76/50 72/62/50 64/53/50
f 90/77/51 83/86/51 74/78/51
f 74/78/52 75/75/52 66/68/52
f 80/79/3 71/76/3 70/72/3
f 76/81/53 77/74/53 68/66/53
f 87/82/54 78/73/54 77/74/54
f 69/65/55 78/73/55 79/80/55
f 84/84/7 85/92/7 76/81/7
f 80/79/56 81/70/56 72/62/56
f 99/85/57 92/96/57 83/86/57
f 74/78/58 83/86/58 84/84/58
f 89/87/3 80/79/3 79/80/3
f 76/81/59 85/92/59 86/83/59
f 96/89/60 87/82/60 86/83/60
f 87/82/61 88/88/61 79/80/61
f 93/91/7 94/99/7 85/92/7
f 89/87/62 90/77/62 81/70/62
f 212/93/63 109/93/63 100/94/63
f 108/95/64 101/105/64 92/96/64
f 83/86/65 92/96/65 93/91/65
f 98/97/3 89/87/3 88/88/3
f 94/99/66 95/90/66 86/83/66
f 105/100/67 96/89/67 95/90/67
f 87/82/68 96/89/68 97/98/68
f 103/102/7 94/99/7 93/91/7
f 98/97/69 99/85/69 90/77/69
f 7/20/3 154/20/3 163/7/3
f 117/104/70 110/112/70 101/105/70
f 101/105/71 102/103/71 93/91/71
f 106/106/3 107/110/3 98/97/3
f 103/102/72 104/101/72 95/90/72
f 114/107/73 105/100/73 104/101/73
f 105/100/74 106/106/74 97/98/74
f 111/109/7 112/125/7 103/102/7
f 107/110/75 108/95/75 99/85/75
f 3/11/7 190/11/7 199/4/7
f 126/111/76 119/122/76 110/112/76
f 101/105/77 110/112/77 111/109/77
f 116/113/3 107/110/3 106/106/3
f 103/102/78 112/125/78 113/108/78
f 123/115/79 114/107/79 113/108/79
f 114/107/80 115/114/80 106/106/80
f 121/117/7 112/125/7 111/109/7
f 116/113/81 117/104/81 108/95/81
f 209/119/82 136/119/82 127/120/82
f 135/121/83 128/133/83 119/122/83
f 119/122/84 120/118/84 111/109/84
f 125/123/3 116/113/3 115/114/3
f 112/125/85 121/117/85 122/116/85
f 132/126/86 123/115/86 122/116/86
f 123/115/87 124/124/87 115/114/87
f 130/128/7 121/117/7 120/118/7
f 125/123/88 126/111/88 117/104/88
f 215/130/89 82/130/89 73/131/89
f 144/132/90 137/141/90 128/133/90
f 119/122/91 128/133/91 129/129/91
f 133/134/3 134/139/3 125/123/3
f 130/128/92 131/127/92 122/116/92
f 141/135/93 132/126/93 131/127/93
f 123/115/94 132/126/94 133/134/94
f 139/137/7 130/128/7 129/129/7
f 134/139/95 135/121/95 126/111/95
f 1/5/63 208/5/63 145/19/63
f 153/140/96 146/148/96 137/141/96
f 128/133/97 137/141/97 138/138/97
f 142/142/3 143/146/3 134/139/3
f 130/128/98 139/137/98 140/136/98
f 150/143/99 141/135/99 140/136/99
f 141/135/100 142/142/100 133/134/100
f 147/145/7 148/151/7 139/137/7
f 143/146/101 144/132/101 135/121/101
f 6/7/89 163/7/89 172/15/89
f 162/147/102 155/157/102 146/148/102
f 137/141/103 146/148/103 147/145/103
f 152/149/3 143/146/3 142/142/3
f 148/151/104 149/144/104 140/136/104
f 159/152/105 150/143/105 149/144/105
f 141/135/106 150/143/106 151/150/106
f 157/154/7 148/151/7 147/145/7
f 143/146/107 152/149/107 153/140/107
f 2/4/108 199/4/108 208/5/108
f 171/156/109 164/165/109 155/157/109
f 155/157/110 156/155/110 147/145/110
f 160/158/3 161/162/3 152/149/3
f 157/154/111 158/153/111 149/144/111
f 167/159/112 168/169/112 159/152/112
f 150/143/113 159/152/113 160/158/113
f 166/160/7 157/154/7 156/155/7
f 161/162/114 162/147/114 153/140/114
f 214/163/3 91/163/3 82/130/3
f 180/164/115 173/174/115 164/165/115
f 155/157/116 164/165/116 165/161/116
f 169/166/3 170/171/3 161/162/3
f 166/160/117 167/159/117 158/153/117
f 177/167/118 168/169/118 167/159/118
f 168/169/119 169/166/119 160/158/119
f 174/170/7 175/184/7 166/160/7
f 170/171/120 171/156/120 162/147/120
f 211/172/108 118/172/108 109/93/108
f 189/173/121 182/182/121 173/174/121
f 164/165/122 173/174/122 174/170/122
f 179/175/3 170/171/3 169/166/3
f 166/160/123 175/184/123 176/168/123
f 186/177/124 177/167/124 176/168/124
f 177/167/125 178/176/125 169/166/125
f 184/179/7 175/184/7 174/170/7
f 179/175/126 180/164/126 171/156/126
f 8/19/127 145/19/127 154/20/127
f 198/181/128 191/190/128 182/182/128
f 173/174/129 182/182/129 183/180/129
f 187/183/3 188/192/3 179/175/3
f 175/184/130 184/179/130 185/178/130
f 195/185/131 186/177/131 185/178/131
f 186/177/132 187/183/132 178/176/132
f 193/187/7 184/179/7 183/180/7
f 179/175/133 188/192/133 189/173/133
f 4/10/82 181/10/82 190/11/82
f 207/189/134 200/197/134 191/190/134
f 191/190/135 192/188/135 183/180/135
f 196/191/3 197/196/3 188/192/3
f 193/187/136 194/186/136 185/178/136
f 203/193/137 204/199/137 195/185/137
f 186/177/138 195/185/138 196/191/138
f 202/194/7 193/187/7 192/188/7
f 197/196/139 198/181/139 189/173/139
f 213/94/127 100/94/127 91/163/127
f 216/131/140 209/119/140 200/197/140
f 200/197/141 201/195/141 192/188/141
f 205/198/3 206/200/3 197/196/3
f 202/194/142 203/193/142 194/186/142
f 213/94/143 204/199/143 203/193/143
f 195/185/144 204/199/144 205/198/144
f 210/120/7 211/172/7 202/194/7
f 197/196/145 206/200/145 207/189/145
f 210/120/7 127/120/7 118/172/7
f 145/19/146 208/5/146 199/4/146
f 199/4/146 190/11/146 181/10/146
f 181/10/146 172/15/146 163/7/146
f 163/7/146 154/20/146 145/19/146
f 145/19/146 199/4/146 181/10/146
f 200/197/147 209/119/147 210/120/147
f 215/130/3 206/200/3 205/198/3
f 211/172/148 212/93/148 203/193/148
f 16/3/149 9/2/149 1/5/149
f 204/199/150 213/94/150 214/163/150
f 215/130/151 216/131/151 207/189/151
f 127/120/146 136/119/146 73/131/146
f 73/131/146 82/130/146 91/163/146
f 91/163/146 100/94/146 109/93/146
f 109/93/146 118/172/146 127/120/146
f 127/120/146 73/131/146 91/163/146
f 11/9/7 3/11/7 2/4/7
f 5/15/152 172/15/152 181/10/152
f 216/131/152 73/131/152 136/119/152
f 13/26/153 5/15/153 4/10/153
