# Blender 4.3.2
# www.blender.org
mtllib Pder.mtl
g Torus.001_Mesh
v -6.717401 13.878295 -0.618750
v -7.166152 12.968317 -0.618750
v -7.492287 12.007551 -0.618750
v -7.690228 11.012438 -0.618750
v -7.756587 10.000000 -0.618750
v -0.100000 17.756586 -0.618750
v -1.012436 17.690228 -0.618750
v -2.007552 17.492287 -0.618750
v -2.968319 17.166151 -0.618750
v -3.878293 16.717402 -0.618750
v -4.721912 16.153711 -0.618750
v -5.484734 15.484735 -0.618750
v -6.153715 14.721910 -0.618750
v -7.756586 0.100001 -0.618749
v -7.166152 12.968317 0.618750
v -7.492287 12.007551 0.618750
v -7.690228 11.012438 0.618750
v -7.756587 10.000000 0.618750
v -0.100000 17.756586 0.618750
v -1.012436 17.690228 0.618750
v -2.007552 17.492287 0.618750
v -2.968319 17.166151 0.618750
v -3.878293 16.717402 0.618750
v -4.721912 16.153711 0.618750
v -5.484734 15.484735 0.618750
v -6.153715 14.721910 0.618750
v -6.717401 13.878295 0.618750
v -7.756586 0.100001 0.618750
v -0.099999 0.100001 -0.618749
v -0.099999 0.100001 0.618750
vn -0.0000 -1.0000 -0.0000
vn -1.0000 -0.0000 -0.0000
vn -0.9979 0.0654 -0.0000
vn -0.9808 0.1951 -0.0000
vn -0.9469 0.3214 -0.0000
vn -0.8969 0.4423 -0.0000
vn -0.8315 0.5556 -0.0000
vn -0.7518 0.6593 -0.0000
vn -0.6593 0.7518 -0.0000
vn -0.5556 0.8315 -0.0000
vn -0.4423 0.8969 -0.0000
vn -0.3214 0.9469 -0.0000
vn -0.1951 0.9808 -0.0000
vn -0.0725 0.9974 -0.0000
vn -0.0000 -0.0000 1.0000
vn -0.0000 -0.0000 -1.0000
vn 1.0000 -0.0000 -0.0000
vt 0.000000 0.000000
s 0
g off
f 28/1/1 29/1/1 30/1/1
f 18/1/2 14/1/2 28/1/2
f 17/1/3 5/1/3 18/1/3
f 16/1/4 4/1/4 17/1/4
f 15/1/5 3/1/5 16/1/5
f 27/1/6 2/1/6 15/1/6
f 26/1/7 1/1/7 27/1/7
f 25/1/8 13/1/8 26/1/8
f 24/1/9 12/1/9 25/1/9
f 23/1/10 11/1/10 24/1/10
f 22/1/11 10/1/11 23/1/11
f 21/1/12 9/1/12 22/1/12
f 20/1/13 8/1/13 21/1/13
f 19/1/14 7/1/14 20/1/14
f 25/1/15 16/1/15 30/1/15
f 3/1/16 12/1/16 8/1/16
f 19/1/17 29/1/17 6/1/17
f 28/1/1 14/1/1 29/1/1
f 18/1/2 5/1/2 14/1/2
f 17/1/3 4/1/3 5/1/3
f 16/1/4 3/1/4 4/1/4
f 15/1/5 2/1/5 3/1/5
f 27/1/6 1/1/6 2/1/6
f 26/1/7 13/1/7 1/1/7
f 25/1/8 12/1/8 13/1/8
f 24/1/9 11/1/9 12/1/9
f 23/1/10 10/1/10 11/1/10
f 22/1/11 9/1/11 10/1/11
f 21/1/12 8/1/12 9/1/12
f 20/1/13 7/1/13 8/1/13
f 19/1/14 6/1/14 7/1/14
f 19/1/15 20/1/15 21/1/15
f 21/1/15 22/1/15 23/1/15
f 23/1/15 24/1/15 25/1/15
f 25/1/15 26/1/15 27/1/15
f 27/1/15 15/1/15 16/1/15
f 16/1/15 17/1/15 18/1/15
f 18/1/15 28/1/15 30/1/15
f 30/1/15 19/1/15 21/1/15
f 21/1/15 23/1/15 25/1/15
f 25/1/15 27/1/15 16/1/15
f 16/1/15 18/1/15 30/1/15
f 30/1/15 21/1/15 25/1/15
f 7/1/16 6/1/16 29/1/16
f 29/1/16 14/1/16 5/1/16
f 5/1/16 4/1/16 3/1/16
f 3/1/16 2/1/16 1/1/16
f 1/1/16 13/1/16 12/1/16
f 12/1/16 11/1/16 10/1/16
f 10/1/16 9/1/16 8/1/16
f 8/1/16 7/1/16 29/1/16
f 29/1/16 5/1/16 3/1/16
f 3/1/16 1/1/16 12/1/16
f 12/1/16 10/1/16 8/1/16
f 8/1/16 29/1/16 3/1/16
f 19/1/17 30/1/17 29/1/17
