# Blender 4.3.2
# www.blender.org
mtllib Pizq.mtl
g Torus.002_Mesh
v 2.968318 17.166151 -0.618750
v 2.007551 17.492289 -0.618750
v 1.012438 17.690226 -0.618750
v 7.756587 0.100001 -0.618750
v 0.099999 17.756586 -0.618750
v 3.878292 16.717402 -0.618750
v 4.721910 16.153711 -0.618750
v 5.484735 15.484733 -0.618750
v 6.153713 14.721911 -0.618750
v 6.717400 13.878296 -0.618750
v 7.166151 12.968318 -0.618750
v 7.492288 12.007551 -0.618750
v 7.690228 11.012439 -0.618750
v 7.756587 10.000001 -0.618750
v 2.968318 17.166151 0.618750
v 2.007551 17.492289 0.618750
v 1.012438 17.690226 0.618750
v 0.099999 17.756586 0.618750
v 7.756587 0.100001 0.618750
v 3.878292 16.717402 0.618750
v 4.721910 16.153711 0.618750
v 5.484735 15.484733 0.618750
v 6.153713 14.721911 0.618750
v 6.717400 13.878296 0.618750
v 7.166151 12.968318 0.618750
v 7.492288 12.007551 0.618750
v 7.690228 11.012439 0.618750
v 7.756587 10.000001 0.618750
v 0.100000 0.100001 -0.618750
v 0.100000 0.100001 0.618750
vn 0.1951 0.9808 -0.0000
vn 0.3214 0.9469 -0.0000
vn 0.4423 0.8969 -0.0000
vn 0.5556 0.8315 -0.0000
vn 0.6593 0.7518 -0.0000
vn 0.7518 0.6593 -0.0000
vn 0.8315 0.5556 -0.0000
vn 0.8969 0.4423 -0.0000
vn 0.9469 0.3214 -0.0000
vn 0.9808 0.1951 -0.0000
vn 0.9979 0.0654 -0.0000
vn 1.0000 -0.0000 -0.0000
vn 0.0725 0.9974 -0.0000
vn -0.0000 -1.0000 -0.0000
vn -0.0000 -0.0000 -1.0000
vn -0.0000 -0.0000 1.0000
vn -1.0000 -0.0000 -0.0000
vt 0.000000 0.000000
s 0
g off
f 16/1/1 3/1/1 17/1/1
f 15/1/2 2/1/2 16/1/2
f 20/1/3 1/1/3 15/1/3
f 21/1/4 6/1/4 20/1/4
f 22/1/5 7/1/5 21/1/5
f 23/1/6 8/1/6 22/1/6
f 24/1/7 9/1/7 23/1/7
f 25/1/8 10/1/8 24/1/8
f 26/1/9 11/1/9 25/1/9
f 27/1/10 12/1/10 26/1/10
f 28/1/11 13/1/11 27/1/11
f 28/1/12 4/1/12 14/1/12
f 17/1/13 5/1/13 18/1/13
f 30/1/14 4/1/14 19/1/14
f 6/1/15 10/1/15 14/1/15
f 26/1/16 22/1/16 16/1/16
f 29/1/17 18/1/17 5/1/17
f 16/1/1 2/1/1 3/1/1
f 15/1/2 1/1/2 2/1/2
f 20/1/3 6/1/3 1/1/3
f 21/1/4 7/1/4 6/1/4
f 22/1/5 8/1/5 7/1/5
f 23/1/6 9/1/6 8/1/6
f 24/1/7 10/1/7 9/1/7
f 25/1/8 11/1/8 10/1/8
f 26/1/9 12/1/9 11/1/9
f 27/1/10 13/1/10 12/1/10
f 28/1/11 14/1/11 13/1/11
f 28/1/12 19/1/12 4/1/12
f 17/1/13 3/1/13 5/1/13
f 30/1/14 29/1/14 4/1/14
f 4/1/15 29/1/15 5/1/15
f 5/1/15 3/1/15 2/1/15
f 2/1/15 1/1/15 6/1/15
f 6/1/15 7/1/15 8/1/15
f 8/1/15 9/1/15 10/1/15
f 10/1/15 11/1/15 12/1/15
f 12/1/15 13/1/15 14/1/15
f 14/1/15 4/1/15 5/1/15
f 5/1/15 2/1/15 6/1/15
f 6/1/15 8/1/15 10/1/15
f 10/1/15 12/1/15 14/1/15
f 14/1/15 5/1/15 6/1/15
f 17/1/16 18/1/16 30/1/16
f 30/1/16 19/1/16 28/1/16
f 28/1/16 27/1/16 26/1/16
f 26/1/16 25/1/16 24/1/16
f 24/1/16 23/1/16 22/1/16
f 22/1/16 21/1/16 20/1/16
f 20/1/16 15/1/16 16/1/16
f 16/1/16 17/1/16 30/1/16
f 30/1/16 28/1/16 26/1/16
f 26/1/16 24/1/16 22/1/16
f 22/1/16 20/1/16 16/1/16
f 16/1/16 30/1/16 26/1/16
f 29/1/17 30/1/17 18/1/17
